<svg xmlns="http://www.w3.org/2000/svg" fill="currentColor" viewBox="0 0 24 24">
  <path d="M12 2.2c3.2 0 3.6 0 4.9.1 1.2.1 1.9.2 2.4.4.6.2 1 .5 1.5 1 .5.5.8.9 1 1.5.2.5.3 1.2.4 2.4.1 1.3.1 1.7.1 4.9s0 3.6-.1 4.9c-.1 1.2-.2 1.9-.4 2.4-.2.6-.5 1-.9 1.5-.5.5-.9.8-1.5 1-.5.2-1.2.3-2.4.4-1.3.1-1.7.1-4.9.1s-3.6 0-4.9-.1c-1.2-.1-1.9-.2-2.4-.4-.6-.2-1-.5-1.5-1-.5-.5-.8-.9-1-1.5-.2-.5-.3-1.2-.4-2.4C2.2 15.6 2.2 15.2 2.2 12s0-3.6.1-4.9c.1-1.2.2-1.9.4-2.4.2-.6.5-1 .9-1.5.5-.5.9-.8 1.5-1 .5-.2 1.2-.3 2.4-.4C8.4 2.2 8.8 2.2 12 2.2zm0 1.8c-3.1 0-3.4 0-4.6.1-1.1.1-1.7.2-2.1.4-.5.2-.8.4-1.1.8s-.6.6-.8 1.1c-.2.4-.3 1-.4 2.1-.1 1.2-.1 1.5-.1 4.6s0 3.4.1 4.6c.1 1.1.2 1.7.4 2.1.2.5.4.8.8 1.1.3.3.6.6 1.1.8.4.2 1 .3 2.1.4 1.2.1 1.5.1 4.6.1s3.4 0 4.6-.1c1.1-.1 1.7-.2 2.1-.4.5-.2.8-.4 1.1-.8.3-.3.6-.6.8-1.1.2-.4.3-1 .4-2.1.1-1.2.1-1.5.1-4.6s0-3.4-.1-4.6c-.1-1.1-.2-1.7-.4-2.1-.2-.5-.4-.8-.8-1.1-.3-.3-.6-.6-1.1-.8-.4-.2-1-.3-2.1-.4-1.2-.1-1.5-.1-4.6-.1zm0 3.7a5.9 5.9 0 1 1 0 11.8 5.9 5.9 0 0 1 0-11.8zm0 1.8a4.1 4.1 0 1 0 0 8.2 4.1 4.1 0 0 0 0-8.2zm5.6-2.3a1.3 1.3 0 1 1-2.6 0 1.3 1.3 0 0 1 2.6 0z"/>
</svg>